<?xml version="1.0" encoding="utf-8"?>
<!-- Generator: Adobe Illustrator 21.1.0, SVG Export Plug-In . SVG Version: 6.00 Build 0)  -->
<svg version="1.1" id="Calque_1" xmlns="http://www.w3.org/2000/svg" xmlns:xlink="http://www.w3.org/1999/xlink" x="0px" y="0px"
	 viewBox="0 0 432 432" style="enable-background:new 0 0 432 432;" xml:space="preserve">
<style type="text/css">
	.st0{fill:#3B4F20;}
	.st1{fill:#8CB225;}
	.st2{fill:#020203;}
	.st3{fill:#4A5C2D;}
	.st4{fill:#FFFFFF;}
	.st5{fill:#E2CF1B;}
	.st6{fill:#718A2A;}
	.st7{fill:#DFBB20;}
	.st8{fill:#EAC839;}
	.st9{fill:#1B1B1B;}
	.st10{fill:#8EC045;}
	.st11{fill:#066938;}
	.st12{fill:#E5AD30;}
	.st13{fill:#4E4D4D;}
	.st14{fill:#8BB226;}
	.st15{fill:#CD1A25;}
	.st16{fill:#4B6426;}
	.st17{fill:#7D9E3C;}
	.st18{fill:#3C4F20;}
	.st19{fill:#384A1F;}
	.st20{fill:#E7E6E6;}
	.st21{fill:#D4A624;}
	.st22{fill:#F7F0E3;}
	.st23{fill:#D2A206;}
	.st24{fill:#CE9835;}
	.st25{fill:#E5D9C2;}
	.st26{fill:#E2AE42;}
	.st27{fill:#EEDBBE;}
	.st28{fill:#F9EA31;}
	.st29{fill:#EB6518;}
	.st30{fill:#0A7132;}
	.st31{fill:#FFE109;}
	.st32{fill:#D76013;}
	.st33{fill:#BBA763;}
	.st34{fill:#7FA22A;}
	.st35{fill:#5B321B;}
	.st36{fill:#4A2615;}
	.st37{fill:#D6AD08;}
	.st38{fill:#F7BBBD;}
	.st39{fill:#D76324;}
	.st40{fill:#607829;}
	.st41{fill:#715C3B;}
	.st42{fill:#644F34;}
	.st43{fill:#89704C;}
	.st44{fill:#B2A38F;}
	.st45{fill:#A59076;}
	.st46{fill:#FFDE0D;}
	.st47{fill:#34AA4A;}
	.st48{fill:#75388D;}
	.st49{fill:#BBBBBB;}
	.st50{fill:#A9A9AA;}
	.st51{fill:#06993B;}
	.st52{fill:#CDCCCC;}
	.st53{fill:#4D2563;}
	.st54{fill:#E3B320;}
	.st55{fill:#0B9541;}
	.st56{fill:#264D23;}
	.st57{fill:#FDC834;}
	.st58{fill:#8C633A;}
	.st59{fill:#B5A059;}
	.st60{fill:#F2F2F2;}
	.st61{fill:#808181;}
	.st62{fill:#62A930;}
	.st63{fill:#A1C746;}
	.st64{fill:#85B04B;}
	.st65{fill:#5E802C;}
	.st66{fill:#BFD783;}
	.st67{fill:#EFC9AF;}
	.st68{fill:#343434;}
	.st69{fill:#EB5B28;}
	.st70{fill:#D1A98D;}
	.st71{fill:#E0A9B8;}
	.st72{fill:#754D24;}
	.st73{fill:#B2D17B;}
	.st74{fill:#62B338;}
	.st75{fill:#274E22;}
	.st76{fill:#CCDC81;}
	.st77{fill-rule:evenodd;clip-rule:evenodd;fill:#85B04B;}
	.st78{fill:#509733;}
	.st79{fill:#203F1E;}
	.st80{fill:#20963A;}
	.st81{fill:#62246B;}
	.st82{fill:#FDCA02;}
	.st83{fill:#B4CD50;}
	.st84{fill:#5C792A;}
	.st85{fill:#C29347;}
	.st86{fill:#4D5C22;}
	.st87{fill:none;}
	.st88{fill:#E19C11;}
	.st89{fill:#E5C997;}
	.st90{fill:#009245;}
	.st91{fill:#48AE4D;}
	.st92{fill:#049348;}
	.st93{fill:#04683B;}
	.st94{fill:#F8AE4C;}
	.st95{fill:#C57B39;}
	.st96{fill:#231F20;}
	.st97{fill:#BC2333;}
	.st98{fill:#EF7A7B;}
	.st99{fill:#46AE51;}
	.st100{fill:#07924B;}
	.st101{fill-rule:evenodd;clip-rule:evenodd;fill:#231F20;}
	.st102{fill:#279A9A;}
	.st103{fill:#8E3189;}
	.st104{fill:#9F6E8E;}
	.st105{fill:#3C3C3B;}
	.st106{fill:#00A69C;}
	.st107{fill:#D5DB41;}
	.st108{fill:#E04542;}
	.st109{fill:#9F1F3B;}
	.st110{fill:#EB5C35;}
	.st111{fill:#F9B233;}
	.st112{fill:#008D36;}
	.st113{fill:#F39200;}
	.st114{fill:#F2D8BD;}
	.st115{fill:#3AAA35;}
	.st116{fill:#95C11F;}
	.st117{fill:#7F5FA5;}
	.st118{fill:#5FA55F;}
	.st119{fill:#A55F8F;}
	.st120{fill:#229538;}
	.st121{fill:#622369;}
	.st122{fill:#FCC804;}
	.st123{fill:#628FB8;}
	.st124{fill:#B2B2B2;}
	.st125{fill:#63B8A4;}
	.st126{fill:#FDCE6C;}
	.st127{fill:#C8DADC;}
	.st128{fill:#ED6B6E;}
	.st129{fill:#EC6365;}
	.st130{fill:#8FC14D;}
	.st131{fill:#FECE6C;}
	.st132{fill:#037132;}
	.st133{fill:#B5CD25;}
	.st134{fill:#137E35;}
	.st135{fill:#7DBA28;}
	.st136{fill:#50AE32;}
	.st137{fill:#04612D;}
	.st138{fill:#F0828B;}
	.st139{fill:#63348B;}
	.st140{fill:#CF75AC;}
	.st141{fill:#895B7E;}
	.st142{fill:#AD94C4;}
	.st143{fill:#C581AB;}
	.st144{fill:#D1BAB0;}
	.st145{fill:#EF7B7C;}
	.st146{fill:#F7C0C2;}
	.st147{fill:#4F1C31;}
	.st148{fill:#9C3760;}
	.st149{fill:#A8768F;}
	.st150{fill:#A04170;}
	.st151{fill:#6CB863;}
</style>
<g>
	<g>
		<path class="st54" d="M348.6,227.9c-0.2-4.3-0.5-8.6-1-12.8c-0.9-7.9-2.5-15.6-4.3-23.3c-4.1-17.8-9.6-35.2-16.6-52
			c-4.9-11.8-10.2-23.4-15.3-35.1c-0.3-0.8-0.6-1.6-1-2.4c-0.3-0.7-0.1-1.1,0.4-1.5c0.7-0.5,1.4-1.1,2.2-1.6
			c2.4-1.5,4.8-2.9,7.1-4.4c2.3-1.4,3-3,2.3-5.6c-0.6-2.3-1.5-4.5-2.4-6.6c-1.8-4-3.6-8-6.1-11.7c-2.8-4.1-6.7-6.1-11.6-6.1
			c-3.1,0-6.1,0.4-9.1,0.9c-9.1,1.5-17.8,4.2-26.1,8.1c-3.3,1.6-6.5,3.3-9.3,5.7c-4.8,4-7.5,9.1-8,15.3c-0.3,3,0.2,6,0.9,8.9
			c1.1,4.5,2.7,8.8,4.5,13c4.3,10.2,8.6,20.3,13,30.5c8,18.2,13.9,37,17.9,56.4c1,5,1.7,10.1,2,15.2c0.4,6.1-0.1,12.2-0.9,18.2
			c-1.4,9.6-4.5,18.6-10,26.7c-5.5,8.2-12.5,14.9-21.1,19.6c-3,1.6-6,3.1-9.1,4.5c-12.1,5.3-24.7,7.8-37.9,6.4
			c-7-0.8-13.9-2.4-20.4-5.1c-8.3-3.5-15.6-8.4-22.6-13.9c-4.6-3.7-8.6-7.9-12-12.7c-2.5-3.5-4.5-7.4-6.1-11.4
			c-3.5-9.2-5-18.7-5.4-28.5c-0.2-5.5,0.4-10.9,1.2-16.3c1.3-8,3.3-15.8,5.7-23.5c3.8-12,8.4-23.6,13.5-35.1
			c5.7-12.9,11.4-25.8,17.2-38.7c1.5-3.4,2.8-6.8,3.8-10.4c0.7-2.5,1-4.9,0.5-7.5c-0.6-3.1-2.2-5.7-4.5-7.8c-1.8-1.7-3.8-3-5.9-4.3
			c-3.4-2-7-3.3-10.7-4.7c-11.2-4.2-22.7-7.5-34.7-8.5c-4.2-0.3-7.9,0.8-11,3.8c-1.7,1.7-3,3.6-4.1,5.7c-2.1,3.9-3.5,8.1-4.7,12.3
			c-0.4,1.2-0.6,2.5-0.8,3.8c-0.3,2.1,0.4,3.7,2.1,4.9c0.6,0.4,1.3,0.7,2,1c1.6,0.5,3.2,1,4.7,1.4c1.6,0.5,3.3,1,5.1,1.6
			c-0.3,0.7-0.5,1.2-0.8,1.6c-1,1.8-2.1,3.5-3.1,5.3c-2.2,3.9-4.4,7.7-6.5,11.6c-4.2,8.2-7.4,16.8-10.3,25.6
			c-5.4,16.1-9.9,32.5-13.5,49.1c-1.7,7.6-3.1,15.3-3.7,23.1c-0.8,9-0.9,18.1-0.4,27.1c0.5,8.5,1.7,16.9,3.6,25.2
			c2.8,12,7.4,23.4,13.9,33.9c2.5,4,5.3,7.7,8.2,11.4c7.5,9.2,16.1,17.1,25.6,24.2c14.1,10.5,29.2,18.9,46.3,23.3
			c6.4,1.6,12.8,2.9,19.3,3.6c6.1,0.6,12.1,1.1,18.2,1.5c9.6,0.6,19.3,0.4,28.8-1c6.8-0.9,13.5-2.4,20-4.8
			c7.9-2.9,15.5-6.4,22.8-10.4c8.4-4.6,15.9-10.3,22.2-17.6c2.4-2.8,4.7-5.6,7-8.4c7.5-9.4,13.7-19.6,18.1-30.8
			c3.8-9.6,6.6-19.4,8.6-29.5c1.5-7.8,2.4-15.8,2.6-23.8C348.9,236.4,348.8,232.2,348.6,227.9z M106.7,157.7c0.3-1.3,0.7-2.7,1.2-4
			c0.3-0.9,0.9-1.6,1.7-2c0.7-0.4,1.5-0.4,2.3-0.2c3.6,0.9,7.2,1.9,10.8,2.8c1.3,0.3,2.6,0.6,4,1c1.8-6,3.6-11.8,5.4-17.7
			c-1.6-0.5-3.1-0.9-4.5-1.3c-2.3-0.7-4.5-1.5-6.7-2.1c-2.8-0.8-3.5-2.7-2.9-5.4c0.3-1.2,0.8-2.4,1.3-3.5c1.1-2.2,2.5-2.9,4.9-2.3
			c3.7,0.8,7.3,1.5,10.9,2.3c5,1.2,10,2.5,15,3.8c1.1,0.3,2.1,0.8,3,1.2c1.1,0.5,1.6,1.5,1.8,2.7c0.2,2-0.1,4-0.7,5.9
			c-0.5,1.5-1.7,2.2-3.2,2.4c-1.8,0.2-3.6,0-5.4-0.4c-2.7-0.6-5.4-1.2-8.2-1.8c-0.4-0.1-0.8-0.2-1.2-0.3c-1.9,5.8-3.8,11.5-5.7,17.4
			c0.2,0.1,0.4,0.2,0.7,0.2c3.2,0.8,6.4,1.5,9.6,2.4c0.9,0.2,1.7,0.5,2.5,0.9c1.8,0.9,2.6,2.2,2.2,4.2c-0.2,1.1-0.5,2.2-0.8,3.2
			c-0.9,2.7-2.7,3.7-5.6,3.2c-2.7-0.5-5.3-1.2-7.9-1.8c-6.9-1.7-13.8-3.4-20.6-5.7c-0.8-0.3-1.6-0.6-2.4-1
			C106.8,160.8,106.2,159.5,106.7,157.7z M98.3,201.9c1.1-0.1,2.3,0,3.4,0.1c2.9,0.3,5.8,0.7,9,1c0.4-6,1.9-11.5,3.4-17.1
			c-0.6-0.2-1.1-0.4-1.6-0.5c-2.6-0.6-5.1-1.1-7.7-1.7c-0.2,0-0.4-0.1-0.6-0.1c-2.4-0.6-3.6-2.2-3.3-4.7c0.2-1.5,0.6-3.1,1-4.6
			c0.6-1.9,1.9-2.7,3.9-2.5c1.7,0.2,3.5,0.5,5.2,1.1c3.4,1.1,6.8,2.3,10.2,3.6c2.7,1,5.3,2.5,7.5,4.3c3.7,2.9,6.4,6.5,7.5,11.1
			c1.4,5.6-0.6,10.2-5.6,13.1c-0.5,0.3-1.1,0.6-1.7,0.9c-2.6,1.2-5.4,1.8-8.2,2.1c-4.9,0.5-9.7,0-14.6-0.6c-2-0.3-4-0.5-6-0.8
			c-0.9-0.1-1.8-0.4-2.6-0.7c-1-0.4-1.4-1.3-1.3-2.2C96.6,202.8,97.3,202,98.3,201.9z M93.8,239.7c-1.1-0.7-1.8-1.7-1.9-3
			c-0.1-1.2-0.1-2.4,0-3.5c0.1-1.3,0.8-2.4,1.8-3.2c0.9-0.7,1.9-1.4,2.9-2c4.2-2.5,8.7-4,13.3-5.5c4.8-1.5,9.6-2.7,14.5-3.7
			c1.3-0.3,2.6-0.4,3.8-0.6c1.1-0.2,2,0.3,2.6,1.2c0.8,1.2,1.1,2.6,1.4,4c0.1,0.8,0.2,1.6,0.3,2.5c0.2,1.5-0.3,2.7-1.5,3.5
			c-0.9,0.6-1.8,1.1-2.8,1.4c-3.8,1.2-7.7,2.4-11.5,3.5c-3.9,1.2-7.8,2.4-11.7,3.6c-0.4,0.1-0.8,0.3-1.2,0.5c0,0.1,0,0.2,0,0.3
			c2.7,1.1,5.4,2.3,8.2,3.2c5.1,1.7,10.3,3.3,15.5,5c0.8,0.3,1.6,0.6,2.4,1c1,0.5,1.4,1.5,1.2,2.5c-0.3,1-1.2,1.7-2.4,1.5
			c-1.2-0.1-2.4-0.4-3.6-0.7c-6.3-1.5-12.6-3.3-18.8-5.4c-3.3-1.2-6.6-2.5-9.7-4.2C95.6,240.9,94.7,240.3,93.8,239.7z M121.1,284.8
			c-0.4-0.3-0.7-0.8-0.9-1.2c-1.5-2.7-3-5.5-4.6-8.2c-0.2-0.4-0.4-0.8-0.7-1.2c-2.7,0.9-5.3,1.8-8,2.7c0.5,1.5,1,2.9,1.6,4.4
			c0.5,1.3,1.1,2.6,1.6,3.9c0.2,0.5,0.4,1,0.5,1.6c0.2,1.1-0.2,2-1.1,2.5c-0.9,0.4-1.9,0.2-2.6-0.7c-0.8-1.1-1.7-2.2-2.3-3.4
			c-1.6-3.4-3.2-6.8-4.6-10.2c-0.4-0.9-0.5-1.9-0.6-2.9c-0.1-1.5,0.5-2.7,1.7-3.5c0.6-0.5,1.3-0.8,2-1.2c2.9-1.6,5.9-3,9-4
			c4.2-1.3,8.2-3,12.2-4.6c1.5-0.6,3.1-1,4.7-1.5c1.9-0.6,3.4,0,4.7,1.4c0.6,0.7,1.1,1.4,1.6,2.2c2.1,3.2,4.3,6.4,6.4,9.6
			c0.3,0.4,0.5,0.8,0.7,1.2c0.3,0.7,0.1,1.4-0.4,1.8c-0.5,0.4-1.3,0.5-2,0c-0.7-0.6-1.4-1.2-2-1.9c-1.3-1.5-2.5-3-3.8-4.5
			c-0.1-0.2-0.3-0.3-0.4-0.5c-3.3,1.9-6.9,3.1-10.4,4.4c-1.3,0.5-2.6,1-4.1,1.5c0.2,0.5,0.4,0.9,0.6,1.3c1.3,2.7,2.6,5.5,3.9,8.2
			c0.2,0.4,0.3,0.9,0.3,1.4c0.1,0.8-0.3,1.5-1,1.8C122.4,285.4,121.7,285.3,121.1,284.8z M123.7,292.5c0.4-2.6,2.8-4.6,5.4-4.5
			c1.4,0,2.6,0.4,3.6,1.4c1.4,1.4,2.1,3.1,1.5,5c-0.6,2.1-2.1,3.3-4.2,3.7c-0.9,0.2-1.9,0.1-2.8-0.1
			C124.7,297.3,123.3,295,123.7,292.5z M171.9,315.9c-1.4,6.6-3.6,12.8-6.4,18.9c-0.9,2-2,3.9-3,5.9c-0.3,0.5-0.6,0.9-1,1.3
			c-0.7,0.6-1.5,0.6-2.2,0.2c-0.7-0.4-1.1-1.2-0.8-2c0.5-1.5,1-2.9,1.6-4.3c0.9-2.1,1.9-4.1,2.9-6.2c0.2-0.4,0.3-0.9,0.5-1.4
			c-6-3.2-11.8-6.5-17.1-10.8c-0.3,0.3-0.5,0.6-0.8,0.9c-1.5,2-3,3.9-4.5,5.9c-1.9,2.5-4.1,3.3-7.1,2.4c-2.8-0.9-5.2-2.5-7-4.8
			c-1.1-1.4-1.4-3-0.8-4.7c0.3-0.8,0.6-1.6,1.1-2.3c1.3-1.7,2.5-3.4,4-5c2.4-2.6,5.2-4.9,8-7.2c4.6-3.8,9.8-6.3,15-9.1
			c1.5-0.8,3.2-1.3,4.9-1.7c3.2-0.7,6.1,0.1,8.6,2.4c2.6,2.4,3.8,5.4,4.5,8.8C173.2,307.5,172.8,311.7,171.9,315.9z M182.5,327.6
			c-2.2,0.8-4.5,0-5.9-1.9c-1.5-2-1.6-4.6-0.2-6.5c0.4-0.6,0.9-1.2,1.5-1.7c1.5-1.3,3.3-1.6,5.2-0.9c2,0.8,3.2,2.3,3.5,4.4
			c0,0.2,0,0.5,0,0.6C186.5,324.4,184.8,326.8,182.5,327.6z M212.7,348.2c-0.5,0.2-1.1,0.4-1.7,0.5c-4.9,0.8-9.8,0.8-14.6-0.5
			c-0.8-0.2-1.5-0.3-2.3-0.5c-2.3-0.6-3.6-2-3.6-4.5c0-2.4,0.1-4.7,0.3-7.1c0.5-4.7,0.9-9.3,1.6-13.9c0.7-5.3,1.6-10.6,2.5-15.8
			c0.4-2.4,1.8-3.6,4.2-3.9c1.4-0.2,2.8,0,4.1,0.4c1.1,0.3,1.8,1.1,2.3,2.1c0.6,1.1,0.8,2.4,0.8,3.6c-0.1,2.5-0.1,5-0.4,7.5
			c-0.4,4.3-0.8,8.6-1.3,12.9c-0.5,4.7-1.2,9.4-1.8,14.1c0,0.2,0,0.4-0.1,0.7c0.7,0,1.4,0.1,2,0.1c1.8,0,3.7-0.1,5.5-0.1
			c0.7,0,1.4,0,2.1,0.2c1,0.2,1.6,0.9,1.7,1.8C214.3,347,213.8,347.8,212.7,348.2z M251.1,327.1c-0.1,2.9-0.4,5.7-1.1,8.5
			c-0.6,2.8-1.8,5.4-3.2,7.8c-1.7,3-4.5,4.3-7.8,4.5c-4.1,0.2-7.7-1.3-10.8-3.9c-3.4-2.8-5.6-6.4-7.2-10.5c-1.6-4-2.4-8.1-3-12.3
			c-0.4-3-0.8-6-1.1-9c-0.2-1.7-0.2-3.4,0.1-5.1c0.3-1.6,1.3-2.7,2.8-3.4c2.8-1.2,5.7-1.5,8.6-1.7c1.7-0.1,3.2,1,3.9,2.8
			c0.4,1.2,0.6,2.5,0.8,3.8c0.4,3.9,0.7,7.9,1.2,11.8c0.6,5.3,1.6,10.6,2.8,15.8c0.3,1.3,0.9,2.4,1.7,3.3c1.1,1.4,2.2,1.5,3.7,0.5
			c1.2-0.8,2-1.8,2.5-3.1c1-2.7,1.3-5.5,1.5-8.3c0.1-1.5,0-3.1,0-4.5c-0.1-5.2-0.7-10.2-1.5-15.1c-0.3-1.7-0.3-3.5-0.4-5.3
			c0-0.7,0.1-1.3,0.6-1.8c0.7-0.8,1.8-0.9,2.4-0.1c0.5,0.6,0.9,1.4,1.1,2.2c0.8,2.7,1.4,5.4,1.7,8.2
			C250.8,317.2,251.3,322.1,251.1,327.1z M332.8,194.4c1,2,1.7,4,2,6.1c0.1,0.9,0.3,1.7,0.5,2.5c0.1,0.3,0.1,0.7,0.1,1.1
			c0.1,1.8-0.8,3-2.6,3.4c-2.8,0.6-5.5,1.2-8.3,1.6c-7.3,1.1-14.6,2.1-21.8,3.7c-1,0.2-2,0.4-3,0.6c-2,0.4-3.7-0.2-4.9-1.9
			c-1.3-1.9-2.1-4-2.4-6.2c-0.6-3.4-0.5-6.8,0.9-10.1c2.4-5.4,6.5-8.9,12.1-10.5c1.1-0.3,2.1-0.5,3.2-0.7c1.3-0.2,2.7-0.3,4-0.4
			c5.2,0.1,9.9,1.6,14.3,4.2C329.6,189.4,331.4,191.7,332.8,194.4z M326.4,225.9c-0.1,3.4-2.7,6.2-6.1,6c-3.5,0-6.5-3.1-6.6-6.7
			c0-3.2,2.8-5.9,6.1-5.8C323.6,219.4,326.5,222.3,326.4,225.9z M281,148.9c-0.8,0.5-1.7,0.5-2.4-0.2c-0.7-0.6-0.9-1.5-0.6-2.4
			c0.1-0.5,0.4-0.9,0.7-1.4c0.7-1.1,1.4-2.2,2.1-3.3c1.1-1.8,2.3-3.6,3.3-5.5c0.9-1.7,1.6-3.5,2.4-5.3c-2-0.1-3.8-0.1-5.6-0.2
			c-3.1-0.2-6.2-0.3-9.3-0.5c-0.9-0.1-1.9-0.3-2.8-0.6c-1.4-0.5-2.4-1.5-2.6-2.9c-0.2-1.2-0.4-2.5-0.3-3.7c0.1-2.3,1.6-3.9,3.8-4.3
			c0.6-0.1,1.2-0.2,1.8-0.2c4.5,0.1,9,0.2,13.4,0.4c2.8,0.1,5.7,0.2,8.5,0.3c4.9,0.3,9.8,0.6,14.7,0.9c1.8,0.1,3.3,0.9,4.3,2.5
			c1.1,1.7,2,3.6,2.4,5.6c0.6,2.5-0.8,4.3-3.4,4.4c-5.9,0.2-11.9,0-17.7-1.1c-0.7-0.1-1.4-0.2-2.2-0.3c-1.9,6-5.1,11.2-8.7,16.1
			C282.3,147.8,281.6,148.4,281,148.9z M284.1,163.1c0.7-1.7,1.9-3.3,3.1-4.7c2.3-2.7,5-4.9,7.8-6.9c4.1-2.9,8.5-5.3,13-7.3
			c1.7-0.8,3.3-1.8,5.2-2.1c0.2,0,0.5-0.1,0.7-0.1c0.8-0.1,1.5,0.3,1.9,1c0.4,0.7,0.2,1.5-0.4,1.9c-0.9,0.8-1.9,1.5-2.9,2
			c-2.5,1.4-5,2.7-7.6,4.1c-0.3,0.2-0.6,0.4-1,0.6c2.7,4.3,5.5,8.4,7,13.2c0.4-0.1,0.7-0.1,1-0.2c2.2-0.6,4.3-1.3,6.5-1.8
			c1-0.2,2.1-0.3,3.2-0.2c1.3,0,2.3,0.7,3.2,1.6c2.1,2.3,3.3,5,3.6,8c0.2,1.7-0.6,3.1-2.2,3.8c-1.5,0.6-3.1,1.1-4.7,1.4
			c-5.9,1.1-11.8,2-17.8,1.7c-4.1-0.2-8.2-0.4-12.1-1.7c-1.2-0.4-2.3-0.8-3.4-1.4C283.3,173.1,282,168,284.1,163.1z M295.4,320.9
			c-0.1,0.4-0.3,0.8-0.6,1.2c-3.6,4.9-8.3,8.4-14.3,9.8c-4.5,1.1-8.6,0-12.1-3c-1.4-1.2-2.6-2.5-3.7-4c-2.5-3.5-4.8-7.1-6.1-11.3
			c-0.8-2.6-1-5.2-1.1-8.1c0-2.1,0.3-4.4,0.9-6.7c0.9-3,2.8-5.2,5.3-7c1.3-1,2.7-1.9,4.3-2.3c0.9-0.2,1.8-0.3,2.8-0.4
			c1-0.1,1.7,0.4,2.3,1.2c0.5,0.7,0.5,1.1-0.2,1.7c-0.9,0.7-1.9,1.3-2.8,1.9c-0.4,0.3-0.8,0.6-1.2,0.9c-0.8,0.6-1.3,1.5-1.2,2.5
			c0,0.8,0.1,1.7,0.4,2.4c0.6,1.6,1.2,3.2,2,4.7c3.1,5.5,6.4,10.9,10.1,16.1c0.2,0.3,0.5,0.6,0.7,1c2.2,2.9,5.9,3.2,8.6,0.7
			c1.1-1,2.2-2,3.2-2.9c0.7-0.6,1.4-0.7,2-0.3C295.3,319.3,295.6,320.1,295.4,320.9z M327.4,284.1c-0.5,0.5-1.2,0.7-1.8,0.6
			c-1.1-0.1-2.1-0.1-3.1-0.4c-3-0.7-6-1-9-0.3c-2.7,0.6-5.3,1.8-7.9,3.1c0.3,0.3,0.6,0.5,0.8,0.7c2.7,2,5.3,3.9,8,5.9
			c0.3,0.2,0.5,0.4,0.8,0.5c3,2.1,3.3,5.1,1.5,8.2c-0.8,1.3-1.9,2.2-3.1,3.1c-1.2,0.8-2.6,0.9-4,0.5c-0.8-0.2-1.5-0.5-2.2-0.9
			c-2.2-1.2-4.4-2.4-6.4-4c-3.2-2.6-6.5-5.2-9.7-7.8c-2.6-2.1-5.3-4.2-7.9-6.4c-0.6-0.5-1.2-1.1-1.9-1.6c-2.5-2-2.9-4.6-2.2-7.5
			c0.4-1.4,1.1-2.6,2-3.7c1.1-1.3,2.4-1.7,4-1.1c1,0.4,2,0.9,2.9,1.5c3.3,2.3,6.6,4.6,9.8,6.9c0.5,0.4,1.1,0.8,1.8,1.4
			c-0.1-0.8-0.2-1.4-0.3-1.9c-1-5.3-2.7-10.2-5.7-14.8c-0.7-1-1.3-2.1-1.8-3.2c-0.2-0.4-0.4-0.8-0.4-1.2c0-0.6,0.4-1.1,1-1.3
			c0.7-0.2,1.3,0,1.7,0.5c1.2,1.5,2.6,2.9,3.6,4.5c3,4.6,4.8,9.8,5.9,15.2c0.1,0.5,0.2,1.1,0.3,1.7c0.3-0.2,0.6-0.3,0.8-0.4
			c4.6-3.1,9.7-3.9,15.1-3.1c2.3,0.3,4.5,0.9,6.5,2C328.1,281.6,328.5,283.1,327.4,284.1z M335.9,256.5c-0.2,1.1-0.4,2.2-0.7,3.2
			c-0.2,0.6-0.4,1.2-0.8,1.7c-0.8,1.2-2.3,1.6-3.7,1.1c-0.4-0.1-0.7-0.4-1-0.6c-3.3-2.1-6.7-4.2-10-6.2c-2.5-1.4-5.1-2.7-7.6-4
			c-0.5-0.3-0.9-0.1-1.4,0.1c-2.9,1.6-5.9,3-9.1,3.7c-1.7,0.4-3.5,0.7-5.2,1.1c-0.4,0.1-0.8,0.1-1.2,0c-1-0.1-1.7-0.8-1.9-1.7
			c-0.2-0.9,0.2-1.8,1-2.3c0.5-0.3,1.1-0.5,1.7-0.7c2.7-0.9,5.4-1.7,8.1-2.6c0.4-0.1,0.9-0.3,1.5-0.6c-0.7-0.3-1.1-0.5-1.6-0.8
			c-2.2-1.1-4.5-2.1-6.7-3.2c-1.1-0.5-2.1-1.3-3-2c-1.2-1-1.6-2.4-1.2-3.9c0.4-1.3,0.8-2.7,1.4-4c1.4-2.6,3.8-3.2,6.3-1.8
			c5.4,3,10.8,6,16.2,9c4.6,2.6,9.3,5.2,13.9,7.8c1.1,0.6,2.2,1.4,3.2,2.1C335.6,253.1,336.3,254.6,335.9,256.5z"/>
		<path class="st54" d="M166.8,301.5c-0.7-2-2-2.7-4-2c-1.4,0.5-2.7,1.2-3.6,2.3c-3.1,3.7-6.2,7.4-9.3,11.1
			c-0.1,0.1-0.1,0.2-0.2,0.4c5.2,3.1,10,6.8,15.8,9.2c0.3-1.2,0.7-2.3,1-3.4c0.9-3.5,1.7-6.9,1.5-10.6
			C167.8,306.3,167.6,303.9,166.8,301.5z"/>
		<path class="st54" d="M324.2,191.8c-5.5-3.4-11.5-4.1-17.7-2.6c-5.7,1.4-9.5,5.6-10.2,11.5c0,0.1,0,0.3,0,0.3
			c10.3-2.2,20.5-4.2,30.9-6C326.5,193.5,325.7,192.6,324.2,191.8z"/>
		<path class="st54" d="M290.7,169.6c1.6,0.4,3.1,0.2,4.7-0.1c3.9-0.7,7.7-2,11.4-3.2c0.1,0,0.3-0.2,0.5-0.3
			c-2.3-4.1-4-8.5-6.8-12.4c-1.9,1.3-3.8,2.5-5.6,3.8c-1.9,1.4-3.6,3-5.2,4.8c-1.1,1.2-1.9,2.6-2.2,4.2c-0.3,1.2,0.1,2.1,1.2,2.6
			C289.4,169.3,290,169.4,290.7,169.6z"/>
		<path class="st54" d="M123,202.8c2.3-0.3,4.5-1.1,6.5-2.4c0.8-0.5,1.2-1.2,1.2-2.2c0-1.4-0.2-2.7-1.1-3.8
			c-0.7-0.9-1.6-1.9-2.5-2.6c-2.4-1.9-5.1-3.2-7.9-4.3c-0.2-0.1-0.4-0.1-0.6-0.2c-1.8,5.1-2.9,10.4-3.7,15.8c0.3,0,0.5,0.1,0.7,0.1
			C118,203.1,120.5,203.1,123,202.8z"/>
	</g>
	<path class="st62" d="M253.8,198.6c18.2-24.2-5.8-25.6-25.5-12.5c0-5.1-0.7-10.3-2-15.2c-3.9-13.5-18.6-12-21.6,1.5
		c-24-18.4-25.6,5.5-12.7,25.4c-5.1,0-10.3,0.6-15.2,1.9c-13.6,3.8-12.1,18.5,1.3,21.6c-18.9,24.2,6,25.7,26.2,12.3
		c0,5.5,0.8,11.1,2.3,16.2c4.2,13.4,18.9,11.6,21.6-1.9c24.4,17.9,25.5-6,12.2-25.6c5.1-0.1,10.3-0.8,15.1-2.2
		C269,216.2,267.3,201.5,253.8,198.6z"/>
</g>
</svg>
