<?xml version="1.0" encoding="utf-8"?>
<!-- Svg Vector Icons : http://www.onlinewebfonts.com/icon -->
<!DOCTYPE svg PUBLIC "-//W3C//DTD SVG 1.1//EN" "http://www.w3.org/Graphics/SVG/1.1/DTD/svg11.dtd">
<svg version="1.1" xmlns="http://www.w3.org/2000/svg" xmlns:xlink="http://www.w3.org/1999/xlink" x="0px" y="0px" viewBox="0 0 1000 1000" enable-background="new 0 0 1000 1000" xml:space="preserve">
<metadata> Svg Vector Icons : http://www.onlinewebfonts.com/icon </metadata>
<g><g transform="translate(0.000000,511.000000) scale(0.100000,-0.100000)"><path fill="#61dbfb" d="M9199.9,3275.4c-32-16-56-36-56-46c0-8-61.9-16-137.9-18c-151.9,0-241.8-36-293.7-115.9c-48-69.9-28-249.8,93.9-851.3c109.9-553.5,149.9-851.3,129.9-961.2l-14-73.9h-513.6H7893l-24,405.7c-46,757.4-157.9,1290.9-305.7,1436.8l-54,56H3982.3H455.2l-50-60c-105.9-125.9-207.8-503.6-267.8-999.2c-50-409.7-50-1468.8,0-1878.4c60-489.6,161.9-877.3,263.8-995.2l46-54l557.5-10l555.5-10l-181.8-1019.2c-99.9-559.5-187.9-1053.1-195.8-1093.1l-14-75.9h2809.7h2809.7l-14,75.9c-8,40-95.9,533.6-197.8,1093.1L6394.3-899.2l567.5,10l567.5,10l46,54C7719.2-657.4,7843.1-31.9,7877,715.5l14,293.8h525.6c291.8,0,547.6,8,575.5,20c67.9,24,127.9,123.9,143.9,239.8c22,133.9-18,435.6-129.9,991.2c-53.9,273.8-105.9,553.5-113.9,623.5l-14,123.9l67.9,4c109.9,4,187.9-6,193.8-26c20-54,127.9-77.9,361.7-77.9c263.8,0,329.7,18,373.7,101.9c54,103.9,16,229.8-81.9,273.8C9715.5,3319.3,9267.9,3313.3,9199.9,3275.4z M7333.5,2603.9c16-57.9,40-155.9,50-215.8c20-101.9,81.9-597.5,81.9-653.5c0-20-407.7-26-1996.3-26H3472.7l-14,58c-20,91.9-117.9,213.8-223.8,275.8c-81.9,48-117.9,56-245.8,56c-127.9,0-163.9-8-245.8-56c-103.9-61.9-209.8-191.8-227.8-277.8l-10-55.9h-997.2c-937.2,0-997.2,2-997.2,36c0,147.9,83.9,693.4,131.9,859.3l30,103.9h3315.2h3315.2L7333.5,2603.9z M3129,1870.5c83.9-44,159.9-165.9,159.9-257.8c0-101.9-69.9-217.8-159.9-263.8c-101.9-51.9-189.8-50-287.7,6c-103.9,60-155.9,157.9-145.9,275.8C2713.3,1850.6,2937.1,1974.4,3129,1870.5z M2515.5,1454.9c18-87.9,123.9-217.8,227.8-279.8c81.9-47.9,117.9-56,245.8-56c127.9,0,163.9,8,245.8,56c105.9,62,203.8,183.9,223.8,275.8l14,57.9H5481h2010.3l-12-523.6c-14-631.5-60-1061.1-145.9-1368.9l-30-105.9h-2412h-2412l77.9,46C2833.2-285.7,2695.3,140,2377.6,104c-291.8-32-365.7-431.6-103.9-559.5c61.9-32,14-34-767.4-34H673l-30,105.9C555.1-71.8,511.2,351.8,497.2,975.3l-12,533.6h1009.2h1011.2L2515.5,1454.9z M6138.5-943.1c-6-32-43.9-301.7-83.9-599.5l-73.9-545.5H3978.3H1975.9l-73.9,545.5c-40,297.8-77.9,567.5-83.9,599.5l-12,54h2172.2h2172.2L6138.5-943.1z M3978.3-2278h2176.2l63.9,439.6c34,241.8,64,431.7,66,419.6c4-40,241.8-1360.9,253.8-1414.8l12-54H3978.3H1406.4l12,55.9c10,44,245.8,1362.9,253.8,1416.8c2,8,32-181.8,65.9-423.7l61.9-439.6H3978.3z"/><path fill="#61dbfb" d="M6450.2,2436.1c-261.8-133.9-187.9-529.6,103.9-561.5c229.8-26,399.7,211.8,301.7,421.7C6785.9,2442.1,6594.1,2508,6450.2,2436.1z"/><path fill="#61dbfb" d="M5051.4,1077.2c-261.8-133.9-187.9-529.6,103.9-561.5c229.8-26,399.7,211.8,301.7,421.7C5387.1,1083.2,5195.3,1149.1,5051.4,1077.2z"/><path fill="#61dbfb" d="M854.9,877.4C593.1,743.5,667,347.8,958.8,315.8c229.8-26,399.7,211.8,301.7,421.7C1190.6,883.4,998.8,949.3,854.9,877.4z"/><path fill="#61dbfb" d="M1254.5,277.9C992.8,144,1066.7-251.7,1358.5-283.7c229.8-26,399.7,211.8,301.7,421.7C1590.3,283.9,1398.4,349.8,1254.5,277.9z"/><path fill="#61dbfb" d="M6050.6,277.9c-261.8-133.9-187.9-529.6,103.9-561.6c229.8-26,399.7,211.8,301.7,421.7C6386.3,283.9,6194.4,349.8,6050.6,277.9z"/><path fill="#61dbfb" d="M4052.2,257.9c-261.8-133.9-187.9-529.6,103.9-561.5c229.8-26,399.7,211.8,301.7,421.7C4387.9,263.9,4196.1,329.8,4052.2,257.9z"/></g></g>
</svg>